<svg xmlns="http://www.w3.org/2000/svg" version="1.1" xmlns:xlink="http://www.w3.org/1999/xlink" xmlns:svgjs="http://svgjs.dev/svgjs" width="1000" height="1000" viewBox="0 0 1000 1000"><rect width="1000" height="1000" fill="#000000"></rect><g transform="matrix(0.7,0,0,0.7,149.57575760216366,297.9142896792905)"><svg viewBox="0 0 396 229" data-background-color="#77d4fc" preserveAspectRatio="xMidYMid meet" height="578" width="1000" xmlns="http://www.w3.org/2000/svg" xmlns:xlink="http://www.w3.org/1999/xlink"><g id="tight-bounds" transform="matrix(1,0,0,1,0.2400000149382322,-0.12128572046815123)"><svg viewBox="0 0 395.52 229.24257075307614" height="229.24257075307614" width="395.52"><g><svg viewBox="0 0 395.52 229.24257075307614" height="229.24257075307614" width="395.52"><g transform="matrix(1,0,0,1,0,138.461012356851)"><svg viewBox="0 0 395.52 90.78155839622514" height="90.78155839622514" width="395.52"><g id="textblocktransform"><svg viewBox="0 0 395.52 90.78155839622514" height="90.78155839622514" width="395.52" id="textblock"><g><svg viewBox="0 0 395.52 55.07081894503406" height="55.07081894503406" width="395.52"><g transform="matrix(1,0,0,1,0,0)"><svg width="395.52" viewBox="1.350000023841858 -37.25 315.6300048828125 43.95000076293945" height="55.07081894503406" data-palette-color="#0080ff"><path d="M19.45 5.95L3.65 5.95Q2.45 5.95 1.9 5.4 1.35 4.85 1.35 3.65L1.35 3.65 1.35-2.2Q1.35-2.85 1.53-3.3 1.7-3.75 2.05-4.05L2.05-4.05 7.05-8.25Q4.4-9.05 2.88-10.98 1.35-12.9 1.35-16.5L1.35-16.5 1.35-21.75Q1.35-24 2.1-25.75 2.85-27.5 4.25-28.7L4.25-28.7 10.75-34.15Q12.1-35.25 14.1-35.88 16.1-36.5 18.65-36.5L18.65-36.5 32.65-36.5Q33.85-36.5 34.4-35.95 34.95-35.4 34.95-34.2L34.95-34.2 34.95-28.25Q34.95-27.6 34.77-27.15 34.6-26.7 34.25-26.4L34.25-26.4 29.75-22.65Q32.9-21.95 34.83-20.03 36.75-18.1 36.75-14.05L36.75-14.05 36.75-8.8Q36.75-6.55 36-4.8 35.25-3.05 33.8-1.85L33.8-1.85 27.35 3.55Q25.95 4.7 23.95 5.33 21.95 5.95 19.45 5.95L19.45 5.95ZM10.1 0L25.9 0Q30.7 0 33.48-2.27 36.25-4.55 36.25-8.8L36.25-8.8 36.25-14.05Q36.25-18.25 34.1-20.05 31.95-21.85 28.45-22.35L28.45-22.35 21-23.35Q20.35-23.4 20-23.85 19.65-24.3 19.65-24.95L19.65-24.95Q19.65-25.6 20-26.03 20.35-26.45 21-26.45L21-26.45 32.65-26.45Q33.6-26.45 34.02-26.88 34.45-27.3 34.45-28.25L34.45-28.25 34.45-34.2Q34.45-35.15 34.02-35.58 33.6-36 32.65-36L32.65-36 18.65-36Q13.8-36 11.05-33.73 8.3-31.45 8.3-27.2L8.3-27.2 8.3-21.95Q8.3-17.75 10.43-15.95 12.55-14.15 16.05-13.65L16.05-13.65 23.55-12.6Q24.2-12.55 24.53-12.15 24.85-11.75 24.85-10.9L24.85-10.9Q24.85-10.3 24.53-9.88 24.2-9.45 23.55-9.45L23.55-9.45 10.1-9.45Q9.15-9.45 8.72-9.03 8.3-8.6 8.3-7.65L8.3-7.65 8.3-1.8Q8.3-0.85 8.72-0.43 9.15 0 10.1 0L10.1 0ZM18.85-31.5L29.95-31.5 29.95-31 18.85-31Q16.75-31 15.5-29.85 14.25-28.7 14.25-26.95L14.25-26.95 14.25-22.85Q14.25-21.1 14.95-20.4 15.65-19.7 16.8-19.5L16.8-19.5 27.35-17.35Q28.85-17.05 29.83-16.05 30.8-15.05 30.8-12.45L30.8-12.45 30.8-9.55Q30.8-7.35 29.3-5.93 27.8-4.5 25.25-4.5L25.25-4.5 12.8-4.5 12.8-5 25.25-5Q27.55-5 28.93-6.28 30.3-7.55 30.3-9.55L30.3-9.55 30.3-12.45Q30.3-14.8 29.48-15.68 28.65-16.55 27.25-16.85L27.25-16.85 16.7-19Q15.4-19.25 14.58-20.03 13.75-20.8 13.75-22.85L13.75-22.85 13.75-26.95Q13.75-28.95 15.15-30.23 16.55-31.5 18.85-31.5L18.85-31.5ZM74.7-1.85L68.25 3.55Q66.5 5.05 63.35 5.88 60.2 6.7 55.25 6.7L55.25 6.7Q50.35 6.7 47.22 5.68 44.1 4.65 42.32 2.95 40.55 1.25 39.87-0.95 39.2-3.15 39.2-5.5L39.2-5.5 39.2-21.05Q39.2-23.35 39.85-25.33 40.5-27.3 42.2-28.7L42.2-28.7 48.7-34.1Q50.45-35.6 53.57-36.43 56.7-37.25 61.7-37.25L61.7-37.25Q66.6-37.25 69.72-36.45 72.85-35.65 74.62-34.23 76.4-32.8 77.05-30.83 77.7-28.85 77.7-26.5L77.7-26.5 77.7-9.45Q77.7-7.15 77.05-5.2 76.4-3.25 74.7-1.85L74.7-1.85ZM77.2-9.45L77.2-9.45 77.2-26.5Q77.2-28.8 76.52-30.68 75.85-32.55 74.12-33.9 72.4-35.25 69.37-36 66.35-36.75 61.7-36.75L61.7-36.75Q57.05-36.75 54-36 50.95-35.25 49.22-33.9 47.5-32.55 46.82-30.68 46.15-28.8 46.15-26.5L46.15-26.5 46.15-9.45Q46.15-7.15 46.82-5.28 47.5-3.4 49.22-2.08 50.95-0.75 54 0 57.05 0.75 61.7 0.75L61.7 0.75Q66.35 0.75 69.37 0 72.4-0.75 74.12-2.08 75.85-3.4 76.52-5.28 77.2-7.15 77.2-9.45ZM71.75-25.35L71.75-10.6Q71.75-7.6 69.6-5.73 67.45-3.85 61.6-3.85L61.6-3.85Q55.75-3.85 53.65-5.73 51.55-7.6 51.55-10.6L51.55-10.6 51.55-25.35Q51.55-28.35 53.65-30.23 55.75-32.1 61.6-32.1L61.6-32.1Q67.45-32.1 69.6-30.23 71.75-28.35 71.75-25.35L71.75-25.35ZM52.05-25.35L52.05-10.6Q52.05-7.8 54.05-6.08 56.05-4.35 61.6-4.35L61.6-4.35Q67.15-4.35 69.2-6.08 71.25-7.8 71.25-10.6L71.25-10.6 71.25-25.35Q71.25-28.15 69.2-29.88 67.15-31.6 61.6-31.6L61.6-31.6Q56.05-31.6 54.05-29.88 52.05-28.15 52.05-25.35L52.05-25.35ZM57.5-11.25L57.5-11.25 57.5-24.7Q57.5-25.65 58.25-26.33 59-27 61.7-27L61.7-27Q64.4-27 65.15-26.33 65.9-25.65 65.9-24.7L65.9-24.7 65.9-11.25Q65.9-10.25 65.15-9.58 64.4-8.9 61.7-8.9L61.7-8.9Q59-8.9 58.25-9.58 57.5-10.25 57.5-11.25ZM58-20.7L58-11.25Q58-10.75 58.2-10.38 58.4-10 58.95-9.75L58.95-9.75 58.95-19.25Q58.95-19.75 58.75-20.13 58.55-20.5 58-20.7L58-20.7ZM97.3 6.7L97.3 6.7Q92.44 6.7 89.32 5.68 86.19 4.65 84.44 2.95 82.69 1.25 82.02-0.95 81.34-3.15 81.34-5.5L81.34-5.5 81.34-28.75Q81.34-29.4 81.52-29.85 81.69-30.3 82.05-30.6L82.05-30.6 88.5-36.05Q88.75-36.25 89.17-36.38 89.59-36.5 90.09-36.5L90.09-36.5 97.94-36.5Q99.14-36.5 99.69-35.95 100.25-35.4 100.25-34.2L100.25-34.2 100.25-11.4Q100.25-10.95 100.39-10.58 100.55-10.2 101.05-10L101.05-10 101.05-28.75Q101.05-29.4 101.19-29.85 101.34-30.3 101.64-30.55L101.64-30.55 101.69-30.6 108.19-36.05Q108.44-36.25 108.84-36.38 109.25-36.5 109.8-36.5L109.8-36.5 117.4-36.5Q118.59-36.5 119.15-35.95 119.69-35.4 119.69-34.2L119.69-34.2 119.69-9.45Q119.69-7.15 119.05-5.2 118.4-3.25 116.69-1.85L116.69-1.85 110.19 3.55Q108.44 5.05 105.34 5.88 102.25 6.7 97.3 6.7ZM119.19-9.45L119.19-9.45 119.19-34.2Q119.19-35.15 118.77-35.58 118.34-36 117.4-36L117.4-36 109.8-36Q108.84-36 108.42-35.58 108-35.15 108-34.2L108-34.2 108-11.4Q108-10.4 107.25-9.73 106.5-9.05 103.84-9.05L103.84-9.05Q101.25-9.05 100.5-9.73 99.75-10.4 99.75-11.4L99.75-11.4 99.75-34.2Q99.75-35.15 99.32-35.58 98.89-36 97.94-36L97.94-36 90.09-36Q89.14-36 88.72-35.58 88.3-35.15 88.3-34.2L88.3-34.2 88.3-9.45Q88.3-7.15 88.97-5.28 89.64-3.4 91.37-2.08 93.09-0.75 96.09 0 99.09 0.75 103.75 0.75L103.75 0.75Q108.39 0.75 111.4 0 114.4-0.75 116.12-2.08 117.84-3.4 118.52-5.28 119.19-7.15 119.19-9.45ZM93.8-10.65L93.8-31.5 94.3-31.5 94.3-10.65Q94.3-7.85 96.27-6.13 98.25-4.4 103.8-4.4L103.8-4.4Q109.34-4.4 111.34-6.13 113.34-7.85 113.34-10.65L113.34-10.65 113.34-31.5 113.84-31.5 113.84-10.65Q113.84-7.65 111.75-5.78 109.64-3.9 103.8-3.9L103.8-3.9Q97.94-3.9 95.87-5.78 93.8-7.65 93.8-10.65L93.8-10.65ZM137.44-31.1L137.44-31.1 155.84-10.4 155.84-31.5 156.34-31.5 156.34-4.5 155.84-4.5 155.84-9.65 136.94-30.85Q136.89-30.9 136.82-30.95 136.74-31 136.69-31L136.69-31Q136.64-31 136.62-30.95 136.59-30.9 136.59-30.85L136.59-30.85 136.59-4.5 136.09-4.5 136.09-30.95Q136.09-31.25 136.29-31.4 136.49-31.55 136.69-31.55L136.69-31.55Q136.89-31.55 137.04-31.45 137.19-31.35 137.44-31.1ZM132.64 0L140.14 0Q141.09 0 141.52-0.43 141.94-0.85 141.94-1.8L141.94-1.8 141.94-18.3 150.49-7.95 150.49-1.8Q150.49-0.85 150.92-0.43 151.34 0 152.29 0L152.29 0 159.79 0Q160.74 0 161.17-0.43 161.59-0.85 161.59-1.8L161.59-1.8 161.59-34.2Q161.59-35.15 161.17-35.58 160.74-36 159.79-36L159.79-36 152.29-36Q151.34-36 150.92-35.58 150.49-35.15 150.49-34.2L150.49-34.2 150.49-23.55 140.79-34.65Q140.14-35.4 139.47-35.7 138.79-36 137.84-36L137.84-36 132.64-36Q131.69-36 131.27-35.58 130.84-35.15 130.84-34.2L130.84-34.2 130.84-1.8Q130.84-0.85 131.27-0.43 131.69 0 132.64 0L132.64 0ZM141.74 0.05L141.74 0.05 135.24 5.45Q135.04 5.65 134.62 5.8 134.19 5.95 133.69 5.95L133.69 5.95 126.19 5.95Q124.99 5.95 124.44 5.4 123.89 4.85 123.89 3.65L123.89 3.65 123.89-28.75Q123.89-29.4 124.07-29.85 124.24-30.3 124.59-30.6L124.59-30.6 131.04-36.05Q131.29-36.25 131.72-36.38 132.14-36.5 132.64-36.5L132.64-36.5 137.84-36.5Q138.94-36.5 139.69-36.15 140.44-35.8 141.19-35L141.19-35 144.64-31 150.69-36.05Q150.94-36.25 151.37-36.38 151.79-36.5 152.29-36.5L152.29-36.5 159.79-36.5Q160.99-36.5 161.54-35.95 162.09-35.4 162.09-34.2L162.09-34.2 162.09-1.8Q162.09-1.15 161.92-0.7 161.74-0.25 161.39 0.05L161.39 0.05 154.89 5.45Q154.69 5.65 154.27 5.8 153.84 5.95 153.34 5.95L153.34 5.95 145.84 5.95Q144.64 5.95 144.09 5.4 143.54 4.85 143.54 3.65L143.54 3.65 143.54-2.3 142.44-3.65 142.44-1.8Q142.44-1.15 142.27-0.7 142.09-0.25 141.74 0.05ZM201.79-2.1L195.29 3.3Q193.74 4.6 191.34 5.28 188.94 5.95 185.69 5.95L185.69 5.95 168.84 5.95Q167.64 5.95 167.09 5.4 166.54 4.85 166.54 3.65L166.54 3.65 166.54-28.75Q166.54-29.4 166.72-29.85 166.89-30.3 167.24-30.6L167.24-30.6 173.69-36.05Q173.94-36.25 174.37-36.38 174.79-36.5 175.29-36.5L175.29-36.5 192.14-36.5Q198.69-36.5 201.82-33.85 204.94-31.2 204.94-25.8L204.94-25.8 204.94-10.2Q204.94-7.5 204.14-5.48 203.34-3.45 201.79-2.1L201.79-2.1ZM175.29 0L192.14 0Q198.39 0 201.42-2.5 204.44-5 204.44-10.2L204.44-10.2 204.44-25.8Q204.44-31 201.42-33.5 198.39-36 192.14-36L192.14-36 175.29-36Q174.34-36 173.92-35.58 173.49-35.15 173.49-34.2L173.49-34.2 173.49-1.8Q173.49-0.85 173.92-0.43 174.34 0 175.29 0L175.29 0ZM191.04-4.5L178.94-4.5 178.94-31.5 191.04-31.5Q193.59-31.5 195.17-30.95 196.74-30.4 197.59-29.48 198.44-28.55 198.74-27.28 199.04-26 199.04-24.55L199.04-24.55 199.04-11.3Q199.04-9.85 198.77-8.6 198.49-7.35 197.64-6.45 196.79-5.55 195.19-5.03 193.59-4.5 191.04-4.5L191.04-4.5ZM191.04-31L191.04-31 179.44-31 179.44-5 191.04-5Q193.44-5 194.92-5.48 196.39-5.95 197.19-6.78 197.99-7.6 198.27-8.78 198.54-9.95 198.54-11.3L198.54-11.3 198.54-24.55Q198.54-25.9 198.24-27.1 197.94-28.3 197.14-29.15 196.34-30 194.87-30.5 193.39-31 191.04-31ZM184.84-9.45L184.84-26.45 190.79-26.45Q191.99-26.45 192.57-25.88 193.14-25.3 193.14-24.05L193.14-24.05 193.14-11.9Q193.14-10.65 192.57-10.05 191.99-9.45 190.79-9.45L190.79-9.45 184.84-9.45ZM186.19-9.95L186.19-18.6Q186.19-19.25 185.99-19.7 185.79-20.15 185.34-20.35L185.34-20.35 185.34-9.95 186.19-9.95ZM231.64 5.95L231.64 5.95 210.34 5.95Q209.14 5.95 208.59 5.4 208.04 4.85 208.04 3.65L208.04 3.65 208.04-2.3Q208.04-2.95 208.21-3.4 208.39-3.85 208.74-4.15L208.74-4.15 214.79-9.25 214.79-20.4 210.34-20.4Q209.14-20.4 208.59-20.95 208.04-21.5 208.04-22.7L208.04-22.7 208.04-28.75Q208.04-29.4 208.21-29.85 208.39-30.3 208.74-30.6L208.74-30.6 215.19-36.05Q215.44-36.25 215.86-36.38 216.29-36.5 216.79-36.5L216.79-36.5 238.09-36.5Q239.29-36.5 239.84-35.95 240.39-35.4 240.39-34.2L240.39-34.2 240.39-28.15Q240.39-27.5 240.21-27.05 240.04-26.6 239.69-26.3L239.69-26.3 233.74-21.3 233.74-10.05 238.09-10.05Q239.29-10.05 239.84-9.5 240.39-8.95 240.39-7.75L240.39-7.75 240.39-1.8Q240.39-1.15 240.21-0.7 240.04-0.25 239.69 0.05L239.69 0.05 233.19 5.45Q232.99 5.65 232.56 5.8 232.14 5.95 231.64 5.95ZM216.79 0L216.79 0 238.09 0Q239.04 0 239.46-0.43 239.89-0.85 239.89-1.8L239.89-1.8 239.89-7.75Q239.89-8.7 239.46-9.13 239.04-9.55 238.09-9.55L238.09-9.55 233.24-9.55 233.24-26.35 238.09-26.35Q239.04-26.35 239.46-26.78 239.89-27.2 239.89-28.15L239.89-28.15 239.89-34.2Q239.89-35.15 239.46-35.58 239.04-36 238.09-36L238.09-36 216.79-36Q215.84-36 215.41-35.58 214.99-35.15 214.99-34.2L214.99-34.2 214.99-28.15Q214.99-27.2 215.41-26.78 215.84-26.35 216.79-26.35L216.79-26.35 221.74-26.35 221.74-9.55 216.79-9.55Q215.84-9.55 215.41-9.13 214.99-8.7 214.99-7.75L214.99-7.75 214.99-1.8Q214.99-0.85 215.41-0.43 215.84 0 216.79 0ZM235.39-5L235.39-4.5 219.49-4.5 219.49-5 227.24-5 227.24-31 219.49-31 219.49-31.5 235.39-31.5 235.39-31 227.74-31 227.74-5 235.39-5ZM254.14 5.95L254.14 5.95 246.39 5.95Q245.19 5.95 244.64 5.4 244.09 4.85 244.09 3.65L244.09 3.65 244.09-28.75Q244.09-29.4 244.26-29.85 244.44-30.3 244.79-30.6L244.79-30.6 251.24-36.05Q251.49-36.25 251.91-36.38 252.34-36.5 252.84-36.5L252.84-36.5 275.14-36.5Q276.34-36.5 276.89-35.95 277.44-35.4 277.44-34.2L277.44-34.2 277.44-28.25Q277.44-27.6 277.26-27.15 277.09-26.7 276.74-26.4L276.74-26.4 271.14-21.75Q272.29-21.75 272.84-21.2 273.39-20.65 273.39-19.45L273.39-19.45 273.39-13.45Q273.39-12.8 273.21-12.35 273.04-11.9 272.69-11.6L272.69-11.6 266.19-6.2Q265.99-6 265.56-5.85 265.14-5.7 264.64-5.7L264.64-5.7 262.89-5.7 262.89-1.8Q262.89-1.15 262.71-0.7 262.54-0.25 262.19 0.05L262.19 0.05 255.69 5.45Q255.49 5.65 255.06 5.8 254.64 5.95 254.14 5.95ZM252.84 0L260.59 0Q261.54 0 261.96-0.43 262.39-0.85 262.39-1.8L262.39-1.8 262.39-11.65 271.09-11.65Q272.04-11.65 272.46-12.08 272.89-12.5 272.89-13.45L272.89-13.45 272.89-19.45Q272.89-20.4 272.46-20.83 272.04-21.25 271.09-21.25L271.09-21.25 262.39-21.25 262.39-26.45 275.14-26.45Q276.09-26.45 276.51-26.88 276.94-27.3 276.94-28.25L276.94-28.25 276.94-34.2Q276.94-35.15 276.51-35.58 276.09-36 275.14-36L275.14-36 252.84-36Q251.89-36 251.46-35.58 251.04-35.15 251.04-34.2L251.04-34.2 251.04-1.8Q251.04-0.85 251.46-0.43 251.89 0 252.84 0L252.84 0ZM256.99-4.5L256.49-4.5 256.49-31.5 272.44-31.5 272.44-31 256.99-31 256.99-16.7 268.39-16.7 268.39-16.2 256.99-16.2 256.99-4.5ZM298.73 5.95L298.73 5.95 290.63 5.95Q289.38 5.95 288.86 5.4 288.33 4.85 288.33 3.65L288.33 3.65 288.33-2.6 280.78-12.7Q279.58-14.3 279.18-15.5 278.78-16.7 278.78-19.15L278.78-19.15 278.78-28.75Q278.78-29.4 278.96-29.85 279.13-30.3 279.48-30.6L279.48-30.6 285.93-36.05Q286.18-36.25 286.61-36.38 287.03-36.5 287.53-36.5L287.53-36.5 295.23-36.5Q296.43-36.5 296.98-35.95 297.53-35.4 297.53-34.2L297.53-34.2 297.53-26Q297.53-25.55 297.58-25.1 297.63-24.65 297.88-24.15L297.88-24.15 298.48-23.3 298.48-28.75Q298.48-29.4 298.66-29.85 298.83-30.3 299.18-30.6L299.18-30.6 305.63-36.05Q305.88-36.25 306.31-36.38 306.73-36.5 307.23-36.5L307.23-36.5 314.68-36.5Q315.88-36.5 316.43-35.95 316.98-35.4 316.98-34.2L316.98-34.2 316.98-24.6Q316.98-22.15 316.58-20.95 316.18-19.75 314.98-18.15L314.98-18.15 307.48-8 307.48-1.8Q307.48-1.15 307.31-0.7 307.13-0.25 306.78 0.05L306.78 0.05 300.28 5.45Q300.08 5.65 299.66 5.8 299.23 5.95 298.73 5.95ZM297.08 0L305.18 0Q306.13 0 306.56-0.43 306.98-0.85 306.98-1.8L306.98-1.8 306.98-8.15 314.58-18.45Q315.68-20 316.08-21.15 316.48-22.3 316.48-24.6L316.48-24.6 316.48-34.2Q316.48-35.15 316.06-35.58 315.63-36 314.68-36L314.68-36 307.23-36Q306.28-36 305.86-35.58 305.43-35.15 305.43-34.2L305.43-34.2 305.43-26Q305.43-25.5 305.38-24.95 305.33-24.4 304.98-23.9L304.98-23.9 302.68-20.3Q302.43-19.85 302.16-19.65 301.88-19.45 301.48-19.45L301.48-19.45 300.98-19.45Q300.58-19.45 300.31-19.65 300.03-19.85 299.78-20.3L299.78-20.3 297.48-23.9Q297.13-24.4 297.08-24.95 297.03-25.5 297.03-26L297.03-26 297.03-34.2Q297.03-35.15 296.61-35.58 296.18-36 295.23-36L295.23-36 287.53-36Q286.58-36 286.16-35.58 285.73-35.15 285.73-34.2L285.73-34.2 285.73-24.6Q285.73-22.3 286.11-21.15 286.48-20 287.63-18.45L287.63-18.45 295.28-8.2 295.28-1.8Q295.28-0.85 295.71-0.43 296.13 0 297.08 0L297.08 0ZM301.73-13.05L301.73-13.05 301.38-13.05 301.38-4.5 300.88-4.5 300.88-13.05 300.38-13.05Q299.28-13.05 298.41-13.55 297.53-14.05 296.73-15.15L296.73-15.15 291.88-21.9Q291.33-22.65 291.23-23.65 291.13-24.65 291.13-25.75L291.13-25.75 291.13-31.5 291.63-31.5 291.63-25.75Q291.63-24.7 291.73-23.78 291.83-22.85 292.33-22.1L292.33-22.1 297.18-15.35Q297.83-14.35 298.68-13.95 299.53-13.55 300.38-13.55L300.38-13.55 301.73-13.55Q302.68-13.55 303.46-13.98 304.23-14.4 304.98-15.35L304.98-15.35 309.98-22.1Q310.48-22.75 310.58-23.73 310.68-24.7 310.68-25.75L310.68-25.75 310.68-31.5 311.18-31.5 311.18-25.75Q311.18-24.65 311.11-23.68 311.03-22.7 310.43-21.9L310.43-21.9 305.43-15.15Q304.63-14.05 303.76-13.55 302.88-13.05 301.73-13.05Z" opacity="1" transform="matrix(1,0,0,1,0,0)" fill="#ffffff" class="undefined-text-0" data-fill-palette-color="primary" id="text-0"></path></svg></g></svg></g><g transform="matrix(1,0,0,1,75.54432,68.07171759830193)"><svg viewBox="0 0 244.43135999999998 22.70984079792321" height="22.70984079792321" width="244.43135999999998"><g transform="matrix(1,0,0,1,0,0)"><svg width="244.43135999999998" viewBox="2.0999999046325684 -33.400001525878906 365.91998291015625 34" height="22.70984079792321" data-palette-color="#0023ff"><path d="M13.6 0.6L13.6 0.6Q10.15 0.6 7.2-0.7 4.25-2 2.1-4.25L2.1-4.25 4.6-7.15Q6.35-5.3 8.72-4.17 11.1-3.05 13.65-3.05L13.65-3.05Q16.9-3.05 18.7-4.53 20.5-6 20.5-8.4L20.5-8.4Q20.5-9.65 20.08-10.53 19.65-11.4 18.93-12.03 18.2-12.65 17.2-13.15 16.2-13.65 15.05-14.2L15.05-14.2 10.35-16.25Q9.2-16.75 8-17.45 6.8-18.15 5.85-19.15 4.9-20.15 4.3-21.53 3.7-22.9 3.7-24.7L3.7-24.7Q3.7-26.55 4.48-28.15 5.25-29.75 6.63-30.93 8-32.1 9.88-32.75 11.75-33.4 14-33.4L14-33.4Q16.95-33.4 19.45-32.27 21.95-31.15 23.7-29.35L23.7-29.35 21.45-26.65Q19.95-28.1 18.13-28.93 16.3-29.75 14-29.75L14-29.75Q11.25-29.75 9.58-28.48 7.9-27.2 7.9-24.95L7.9-24.95Q7.9-23.75 8.38-22.93 8.85-22.1 9.65-21.48 10.45-20.85 11.4-20.38 12.35-19.9 13.35-19.5L13.35-19.5 18-17.5Q19.4-16.9 20.65-16.13 21.9-15.35 22.8-14.33 23.7-13.3 24.23-11.93 24.75-10.55 24.75-8.75L24.75-8.75Q24.75-6.8 23.98-5.1 23.2-3.4 21.75-2.13 20.3-0.85 18.25-0.13 16.2 0.6 13.6 0.6ZM43.3 0.6L43.3 0.6Q40.2 0.6 37.62-0.6 35.05-1.8 33.2-4.03 31.35-6.25 30.32-9.43 29.3-12.6 29.3-16.55L29.3-16.55Q29.3-20.5 30.32-23.63 31.35-26.75 33.2-28.93 35.05-31.1 37.62-32.25 40.2-33.4 43.3-33.4L43.3-33.4Q46.4-33.4 48.97-32.23 51.55-31.05 53.42-28.88 55.3-26.7 56.32-23.58 57.35-20.45 57.35-16.55L57.35-16.55Q57.35-12.6 56.32-9.43 55.3-6.25 53.42-4.03 51.55-1.8 48.97-0.6 46.4 0.6 43.3 0.6ZM43.3-3.05L43.3-3.05Q45.5-3.05 47.27-4 49.05-4.95 50.32-6.73 51.6-8.5 52.3-10.98 53-13.45 53-16.55L53-16.55Q53-19.6 52.3-22.05 51.6-24.5 50.32-26.2 49.05-27.9 47.27-28.83 45.5-29.75 43.3-29.75L43.3-29.75Q41.1-29.75 39.32-28.83 37.55-27.9 36.27-26.2 35-24.5 34.3-22.05 33.6-19.6 33.6-16.55L33.6-16.55Q33.6-13.45 34.3-10.98 35-8.5 36.27-6.73 37.55-4.95 39.32-4 41.1-3.05 43.3-3.05ZM76.05 0.6L76.05 0.6Q73.55 0.6 71.37-0.13 69.2-0.85 67.62-2.53 66.05-4.2 65.15-6.9 64.25-9.6 64.25-13.55L64.25-13.55 64.25-32.8 68.4-32.8 68.4-13.45Q68.4-10.5 69-8.5 69.6-6.5 70.62-5.3 71.65-4.1 73.05-3.58 74.45-3.05 76.05-3.05L76.05-3.05Q77.7-3.05 79.1-3.58 80.5-4.1 81.55-5.3 82.6-6.5 83.2-8.5 83.8-10.5 83.8-13.45L83.8-13.45 83.8-32.8 87.8-32.8 87.8-13.55Q87.8-9.6 86.9-6.9 86-4.2 84.42-2.53 82.85-0.85 80.7-0.13 78.55 0.6 76.05 0.6ZM100.59 0L96.64 0 96.64-32.8 100.94-32.8 112.79-12.2 116.34-5.4 116.54-5.4Q116.39-7.9 116.22-10.58 116.04-13.25 116.04-15.85L116.04-15.85 116.04-32.8 119.99-32.8 119.99 0 115.69 0 103.79-20.65 100.24-27.4 100.04-27.4Q100.24-24.9 100.42-22.33 100.59-19.75 100.59-17.15L100.59-17.15 100.59 0ZM137.39 0L128.99 0 128.99-32.8 137.19-32.8Q144.79-32.8 148.74-28.6 152.69-24.4 152.69-16.55L152.69-16.55Q152.69-12.65 151.69-9.58 150.69-6.5 148.74-4.38 146.79-2.25 143.94-1.13 141.09 0 137.39 0L137.39 0ZM133.14-29.4L133.14-3.4 136.89-3.4Q142.64-3.4 145.52-6.85 148.39-10.3 148.39-16.55L148.39-16.55Q148.39-22.8 145.52-26.1 142.64-29.4 136.89-29.4L136.89-29.4 133.14-29.4ZM181.84 0.6L181.84 0.6Q178.74 0.6 176.16-0.6 173.59-1.8 171.74-4.03 169.89-6.25 168.86-9.43 167.84-12.6 167.84-16.55L167.84-16.55Q167.84-20.5 168.86-23.63 169.89-26.75 171.74-28.93 173.59-31.1 176.16-32.25 178.74-33.4 181.84-33.4L181.84-33.4Q184.94-33.4 187.51-32.23 190.09-31.05 191.96-28.88 193.84-26.7 194.86-23.58 195.89-20.45 195.89-16.55L195.89-16.55Q195.89-12.6 194.86-9.43 193.84-6.25 191.96-4.03 190.09-1.8 187.51-0.6 184.94 0.6 181.84 0.6ZM181.84-3.05L181.84-3.05Q184.04-3.05 185.81-4 187.59-4.95 188.86-6.73 190.14-8.5 190.84-10.98 191.54-13.45 191.54-16.55L191.54-16.55Q191.54-19.6 190.84-22.05 190.14-24.5 188.86-26.2 187.59-27.9 185.81-28.83 184.04-29.75 181.84-29.75L181.84-29.75Q179.64-29.75 177.86-28.83 176.09-27.9 174.81-26.2 173.54-24.5 172.84-22.05 172.14-19.6 172.14-16.55L172.14-16.55Q172.14-13.45 172.84-10.98 173.54-8.5 174.81-6.73 176.09-4.95 177.86-4 179.64-3.05 181.84-3.05ZM207.08 0L202.93 0 202.93-32.8 221.83-32.8 221.83-29.3 207.08-29.3 207.08-18.2 219.58-18.2 219.58-14.7 207.08-14.7 207.08 0ZM241.38 0L237.63 0 237.63-32.8 242.63-32.8 248.93-15.3Q249.53-13.6 250.1-11.88 250.68-10.15 251.28-8.45L251.28-8.45 251.48-8.45Q252.08-10.15 252.6-11.88 253.13-13.6 253.73-15.3L253.73-15.3 259.93-32.8 264.98-32.8 264.98 0 261.08 0 261.08-18.05Q261.08-20.25 261.28-22.9 261.48-25.55 261.63-27.75L261.63-27.75 261.43-27.75 258.83-20.3 252.63-3.3 249.88-3.3 243.68-20.3 241.08-27.75 240.88-27.75Q241.03-25.55 241.2-22.9 241.38-20.25 241.38-18.05L241.38-18.05 241.38 0ZM285.63 0.6L285.63 0.6Q283.13 0.6 280.95-0.13 278.78-0.85 277.2-2.53 275.63-4.2 274.73-6.9 273.83-9.6 273.83-13.55L273.83-13.55 273.83-32.8 277.98-32.8 277.98-13.45Q277.98-10.5 278.58-8.5 279.18-6.5 280.2-5.3 281.23-4.1 282.63-3.58 284.03-3.05 285.63-3.05L285.63-3.05Q287.28-3.05 288.68-3.58 290.08-4.1 291.13-5.3 292.18-6.5 292.78-8.5 293.38-10.5 293.38-13.45L293.38-13.45 293.38-32.8 297.38-32.8 297.38-13.55Q297.38-9.6 296.48-6.9 295.58-4.2 294-2.53 292.43-0.85 290.28-0.13 288.13 0.6 285.63 0.6ZM314.82 0.6L314.82 0.6Q311.37 0.6 308.42-0.7 305.47-2 303.32-4.25L303.32-4.25 305.82-7.15Q307.57-5.3 309.95-4.17 312.32-3.05 314.87-3.05L314.87-3.05Q318.12-3.05 319.92-4.53 321.72-6 321.72-8.4L321.72-8.4Q321.72-9.65 321.3-10.53 320.87-11.4 320.15-12.03 319.42-12.65 318.42-13.15 317.42-13.65 316.27-14.2L316.27-14.2 311.57-16.25Q310.42-16.75 309.22-17.45 308.02-18.15 307.07-19.15 306.12-20.15 305.52-21.53 304.92-22.9 304.92-24.7L304.92-24.7Q304.92-26.55 305.7-28.15 306.47-29.75 307.85-30.93 309.22-32.1 311.1-32.75 312.97-33.4 315.22-33.4L315.22-33.4Q318.17-33.4 320.67-32.27 323.17-31.15 324.92-29.35L324.92-29.35 322.67-26.65Q321.17-28.1 319.35-28.93 317.52-29.75 315.22-29.75L315.22-29.75Q312.47-29.75 310.8-28.48 309.12-27.2 309.12-24.95L309.12-24.95Q309.12-23.75 309.6-22.93 310.07-22.1 310.87-21.48 311.67-20.85 312.62-20.38 313.57-19.9 314.57-19.5L314.57-19.5 319.22-17.5Q320.62-16.9 321.87-16.13 323.12-15.35 324.02-14.33 324.92-13.3 325.45-11.93 325.97-10.55 325.97-8.75L325.97-8.75Q325.97-6.8 325.2-5.1 324.42-3.4 322.97-2.13 321.52-0.85 319.47-0.13 317.42 0.6 314.82 0.6ZM336.57 0L332.42 0 332.42-32.8 336.57-32.8 336.57 0ZM357.97 0.6L357.97 0.6Q354.87 0.6 352.27-0.55 349.67-1.7 347.74-3.88 345.82-6.05 344.74-9.22 343.67-12.4 343.67-16.4L343.67-16.4Q343.67-20.35 344.77-23.5 345.87-26.65 347.82-28.85 349.77-31.05 352.42-32.23 355.07-33.4 358.22-33.4L358.22-33.4Q361.22-33.4 363.49-32.18 365.77-30.95 367.22-29.35L367.22-29.35 364.97-26.65Q363.67-28.05 362.02-28.9 360.37-29.75 358.27-29.75L358.27-29.75Q355.92-29.75 354.02-28.83 352.12-27.9 350.77-26.18 349.42-24.45 348.69-22 347.97-19.55 347.97-16.5L347.97-16.5Q347.97-13.4 348.69-10.93 349.42-8.45 350.72-6.7 352.02-4.95 353.89-4 355.77-3.05 358.12-3.05L358.12-3.05Q360.52-3.05 362.32-4.03 364.12-5 365.72-6.75L365.72-6.75 368.02-4.15Q366.07-1.9 363.62-0.65 361.17 0.6 357.97 0.6Z" opacity="1" transform="matrix(1,0,0,1,0,0)" fill="#ffffff" class="undefined-text-1" data-fill-palette-color="secondary" id="text-1"></path></svg></g></svg></g></svg></g></svg></g><g transform="matrix(1,0,0,1,135.02994314820842,0)"><svg viewBox="0 0 125.46011370358315 125.46011370358315" height="125.46011370358315" width="125.46011370358315"><g><svg xmlns="http://www.w3.org/2000/svg" xmlns:xlink="http://www.w3.org/1999/xlink" version="1.1" x="0" y="0" viewBox="15.333000183105469 15.333000183105469 69.33399963378906 69.33399963378906" enable-background="new 0 0 100 100" xml:space="preserve" height="125.46011370358315" width="125.46011370358315" class="icon-icon-0" data-fill-palette-color="accent" id="icon-0"><g fill="#0023ff" data-fill-palette-color="accent"><path d="M75.667 15.333H24.333c-4.962 0-9 4.038-9 9v51.334c0 4.963 4.038 9 9 9h51.334c4.962 0 9-4.037 9-9V24.333C84.667 19.371 80.629 15.333 75.667 15.333zM24.75 82.667h-0.417c-3.859 0-7-3.141-7-7V36H23v21.551h1.75V82.667zM33 82.667h-7.25V57.551h1.75V36h4.167v21.551H33V82.667zM41.25 82.667H34V57.551h2.167V36h5.083V82.667zM49.5 82.667h-7.25V36h5.5v21.551h1.75V82.667zM57.75 82.667H50.5V57.551h1.75V36H56v21.551h1.75V82.667zM66 82.667h-7.25V57.551h1.75V36H66V82.667zM74.25 82.667H67V36h5.5v21.551h1.75V82.667zM82.667 75.667c0 3.859-3.141 7-7 7H75.25V57.551H77V36h5.667V75.667zM82.667 35H17.333V24.333c0-3.859 3.141-7 7-7h51.334c3.859 0 7 3.141 7 7V35z" fill="#ffffff" data-fill-palette-color="accent"></path><path d="M37.292 19.809h-11.25c-1.654 0-3 1.346-3 3v7.616c0 1.654 1.346 3 3 3h11.25c1.654 0 3-1.346 3-3v-7.616C40.292 21.154 38.946 19.809 37.292 19.809zM38.292 30.425c0 0.552-0.448 1-1 1h-11.25c-0.551 0-1-0.448-1-1v-7.616c0-0.551 0.449-1 1-1h11.25c0.552 0 1 0.449 1 1V30.425z" fill="#ffffff" data-fill-palette-color="accent"></path><polygon points="48.75,21.269 46.75,21.269 46.75,23.21 44.583,23.21 44.583,24.21 46.75,24.21 46.75,26.151 48.75,26.151    48.75,24.21 60.333,24.21 60.333,23.21 48.75,23.21  " fill="#ffffff" data-fill-palette-color="accent"></polygon><polygon points="55.708,26.059 53.708,26.059 53.708,28 44.583,28 44.583,29 53.708,29 53.708,30.941 55.708,30.941 55.708,29    60.333,29 60.333,28 55.708,28  " fill="#ffffff" data-fill-palette-color="accent"></polygon><path d="M67.74 19.744c-1.636 0-2.966 1.33-2.966 2.965 0 1.636 1.33 2.967 2.966 2.967s2.966-1.331 2.966-2.967C70.706 21.074 69.376 19.744 67.74 19.744zM67.74 24.676c-1.084 0-1.966-0.883-1.966-1.967 0-0.909 0.625-1.67 1.466-1.893v1.823h1v-1.823c0.841 0.223 1.466 0.983 1.466 1.893C69.706 23.793 68.824 24.676 67.74 24.676z" fill="#ffffff" data-fill-palette-color="accent"></path><path d="M74.652 25.502c1.636 0 2.966-1.33 2.966-2.966 0-1.635-1.33-2.966-2.966-2.966s-2.966 1.331-2.966 2.966C71.687 24.172 73.017 25.502 74.652 25.502zM74.652 20.57c0.909 0 1.67 0.625 1.894 1.466h-1.824v1h1.824c-0.224 0.841-0.984 1.466-1.894 1.466-1.084 0-1.966-0.882-1.966-1.966S73.568 20.57 74.652 20.57z" fill="#ffffff" data-fill-palette-color="accent"></path><path d="M69.032 27.576c-1.432-0.696-3.273-0.045-3.961 1.376-0.346 0.713-0.393 1.518-0.133 2.266s0.795 1.351 1.508 1.696c0.408 0.197 0.842 0.297 1.292 0.297 1.13 0 2.179-0.657 2.671-1.673 0.346-0.713 0.393-1.518 0.133-2.267C70.281 28.523 69.745 27.921 69.032 27.576zM69.509 31.102c-0.461 0.953-1.664 1.377-2.627 0.912-0.472-0.229-0.826-0.628-0.999-1.124-0.116-0.333-0.132-0.683-0.065-1.021l1.643 0.795 0.436-0.9-1.642-0.795c0.368-0.428 0.909-0.69 1.487-0.69 0.297 0 0.585 0.066 0.855 0.197 0.473 0.229 0.828 0.628 1 1.124S69.737 30.629 69.509 31.102z" fill="#ffffff" data-fill-palette-color="accent"></path><path d="M76.15 27.576c-1.432-0.696-3.274-0.045-3.962 1.376-0.346 0.713-0.393 1.518-0.133 2.266s0.796 1.351 1.509 1.696c0.407 0.197 0.842 0.297 1.292 0.297 1.129 0 2.178-0.657 2.67-1.673 0.346-0.713 0.393-1.518 0.133-2.267C77.399 28.523 76.863 27.921 76.15 27.576zM76.626 31.102c-0.459 0.953-1.664 1.377-2.626 0.912-0.472-0.229-0.827-0.628-0.999-1.124-0.116-0.333-0.132-0.683-0.065-1.021l1.642 0.795 0.436-0.9-1.641-0.795c0.368-0.428 0.909-0.69 1.487-0.69 0.297 0 0.585 0.066 0.854 0.197 0.473 0.229 0.828 0.628 1 1.124C76.887 30.096 76.855 30.629 76.626 31.102z" fill="#ffffff" data-fill-palette-color="accent"></path></g></svg></g></svg></g><g></g></svg></g><defs></defs></svg><rect width="395.52" height="229.24257075307614" fill="none" stroke="none" visibility="hidden"></rect></g></svg></g></svg>